<mxfile host="Electron" modified="2024-04-11T14:35:04.013Z" agent="Mozilla/5.0 (Windows NT 10.0; Win64; x64) AppleWebKit/537.36 (KHTML, like Gecko) draw.io/24.1.0 Chrome/120.0.6099.109 Electron/28.1.0 Safari/537.36" etag="hjv2pBQwIytKRaoUWISz" version="24.1.0" type="device">
  <diagram id="C5RBs43oDa-KdzZeNtuy" name="Page-1">
    <mxGraphModel dx="4787" dy="2813" grid="1" gridSize="10" guides="1" tooltips="1" connect="1" arrows="1" fold="1" page="1" pageScale="1" pageWidth="3300" pageHeight="4681" math="0" shadow="0">
      <root>
        <mxCell id="WIyWlLk6GJQsqaUBKTNV-0" />
        <mxCell id="WIyWlLk6GJQsqaUBKTNV-1" parent="WIyWlLk6GJQsqaUBKTNV-0" />
        <mxCell id="9PQsEiwNXT5saYfVHPQ5-1" value="&lt;font style=&quot;font-size: 24px;&quot;&gt;NFL&lt;br&gt;(remote API)&lt;/font&gt;" style="ellipse;shape=cloud;whiteSpace=wrap;html=1;fillColor=#dae8fc;strokeColor=#6c8ebf;" vertex="1" parent="WIyWlLk6GJQsqaUBKTNV-1">
          <mxGeometry x="1837.5" y="2270" width="260" height="180" as="geometry" />
        </mxCell>
        <mxCell id="9PQsEiwNXT5saYfVHPQ5-15" style="edgeStyle=orthogonalEdgeStyle;rounded=0;orthogonalLoop=1;jettySize=auto;html=1;" edge="1" parent="WIyWlLk6GJQsqaUBKTNV-1">
          <mxGeometry relative="1" as="geometry">
            <mxPoint x="1938.75" y="210" as="sourcePoint" />
            <mxPoint x="1938.8611111111104" y="430" as="targetPoint" />
            <Array as="points">
              <mxPoint x="1938.75" y="330" />
              <mxPoint x="1938.75" y="330" />
            </Array>
          </mxGeometry>
        </mxCell>
        <mxCell id="9PQsEiwNXT5saYfVHPQ5-16" value="Request" style="edgeLabel;html=1;align=center;verticalAlign=middle;resizable=0;points=[];fontSize=24;" vertex="1" connectable="0" parent="9PQsEiwNXT5saYfVHPQ5-15">
          <mxGeometry x="0.0032" y="1" relative="1" as="geometry">
            <mxPoint y="-10" as="offset" />
          </mxGeometry>
        </mxCell>
        <mxCell id="9PQsEiwNXT5saYfVHPQ5-3" value="Actor" style="shape=umlActor;verticalLabelPosition=bottom;verticalAlign=top;html=1;outlineConnect=0;fontSize=25;fillColor=#ffe6cc;strokeColor=#d79b00;" vertex="1" parent="WIyWlLk6GJQsqaUBKTNV-1">
          <mxGeometry x="1900" y="30" width="80" height="130" as="geometry" />
        </mxCell>
        <mxCell id="9PQsEiwNXT5saYfVHPQ5-7" value="&lt;font style=&quot;font-size: 24px;&quot;&gt;Endpoint&lt;/font&gt;&lt;div style=&quot;font-size: 24px;&quot;&gt;&lt;font style=&quot;font-size: 24px;&quot;&gt;(http://localhost:8000/events&lt;/font&gt;&lt;span style=&quot;background-color: initial;&quot;&gt;)&lt;/span&gt;&lt;/div&gt;" style="shape=cube;whiteSpace=wrap;html=1;boundedLbl=1;backgroundOutline=1;darkOpacity=0.05;darkOpacity2=0.1;fillColor=#dae8fc;strokeColor=#6c8ebf;" vertex="1" parent="WIyWlLk6GJQsqaUBKTNV-1">
          <mxGeometry x="1752.5" y="430" width="375" height="220" as="geometry" />
        </mxCell>
        <mxCell id="9PQsEiwNXT5saYfVHPQ5-23" style="edgeStyle=orthogonalEdgeStyle;rounded=0;orthogonalLoop=1;jettySize=auto;html=1;entryX=0.5;entryY=0;entryDx=0;entryDy=0;" edge="1" parent="WIyWlLk6GJQsqaUBKTNV-1" source="9PQsEiwNXT5saYfVHPQ5-9" target="9PQsEiwNXT5saYfVHPQ5-22">
          <mxGeometry relative="1" as="geometry" />
        </mxCell>
        <mxCell id="9PQsEiwNXT5saYfVHPQ5-24" value="&lt;font style=&quot;font-size: 24px;&quot;&gt;PASS&lt;/font&gt;" style="edgeLabel;html=1;align=center;verticalAlign=middle;resizable=0;points=[];fontSize=24;" vertex="1" connectable="0" parent="9PQsEiwNXT5saYfVHPQ5-23">
          <mxGeometry x="-0.1626" y="-6" relative="1" as="geometry">
            <mxPoint as="offset" />
          </mxGeometry>
        </mxCell>
        <mxCell id="9PQsEiwNXT5saYfVHPQ5-28" value="&lt;font style=&quot;font-size: 24px;&quot;&gt;FAIL&lt;/font&gt;" style="edgeStyle=orthogonalEdgeStyle;rounded=0;orthogonalLoop=1;jettySize=auto;html=1;entryX=0.5;entryY=0;entryDx=0;entryDy=0;strokeWidth=1;" edge="1" parent="WIyWlLk6GJQsqaUBKTNV-1" source="9PQsEiwNXT5saYfVHPQ5-9" target="9PQsEiwNXT5saYfVHPQ5-25">
          <mxGeometry x="-0.1642" relative="1" as="geometry">
            <mxPoint as="offset" />
          </mxGeometry>
        </mxCell>
        <mxCell id="9PQsEiwNXT5saYfVHPQ5-9" value="&lt;font style=&quot;font-size: 24px;&quot;&gt;Authorization&lt;/font&gt;" style="shape=process;whiteSpace=wrap;html=1;backgroundOutline=1;fillColor=#e1d5e7;strokeColor=#9673a6;" vertex="1" parent="WIyWlLk6GJQsqaUBKTNV-1">
          <mxGeometry x="1850" y="780" width="200" height="120" as="geometry" />
        </mxCell>
        <mxCell id="9PQsEiwNXT5saYfVHPQ5-21" style="edgeStyle=orthogonalEdgeStyle;rounded=0;orthogonalLoop=1;jettySize=auto;html=1;entryX=0.447;entryY=-0.011;entryDx=0;entryDy=0;entryPerimeter=0;" edge="1" parent="WIyWlLk6GJQsqaUBKTNV-1" source="9PQsEiwNXT5saYfVHPQ5-7" target="9PQsEiwNXT5saYfVHPQ5-9">
          <mxGeometry relative="1" as="geometry" />
        </mxCell>
        <mxCell id="9PQsEiwNXT5saYfVHPQ5-44" style="edgeStyle=orthogonalEdgeStyle;rounded=0;orthogonalLoop=1;jettySize=auto;html=1;entryX=0.5;entryY=0;entryDx=0;entryDy=0;" edge="1" parent="WIyWlLk6GJQsqaUBKTNV-1" source="9PQsEiwNXT5saYfVHPQ5-22" target="9PQsEiwNXT5saYfVHPQ5-30">
          <mxGeometry relative="1" as="geometry" />
        </mxCell>
        <mxCell id="9PQsEiwNXT5saYfVHPQ5-45" value="PASS" style="edgeLabel;html=1;align=center;verticalAlign=middle;resizable=0;points=[];fontSize=24;" vertex="1" connectable="0" parent="9PQsEiwNXT5saYfVHPQ5-44">
          <mxGeometry x="-0.5224" y="3" relative="1" as="geometry">
            <mxPoint y="-3" as="offset" />
          </mxGeometry>
        </mxCell>
        <mxCell id="9PQsEiwNXT5saYfVHPQ5-50" style="edgeStyle=orthogonalEdgeStyle;rounded=0;orthogonalLoop=1;jettySize=auto;html=1;" edge="1" parent="WIyWlLk6GJQsqaUBKTNV-1" source="9PQsEiwNXT5saYfVHPQ5-22" target="9PQsEiwNXT5saYfVHPQ5-47">
          <mxGeometry relative="1" as="geometry" />
        </mxCell>
        <mxCell id="9PQsEiwNXT5saYfVHPQ5-51" style="edgeStyle=orthogonalEdgeStyle;rounded=0;orthogonalLoop=1;jettySize=auto;html=1;" edge="1" parent="WIyWlLk6GJQsqaUBKTNV-1" source="9PQsEiwNXT5saYfVHPQ5-22" target="9PQsEiwNXT5saYfVHPQ5-48">
          <mxGeometry relative="1" as="geometry" />
        </mxCell>
        <mxCell id="9PQsEiwNXT5saYfVHPQ5-52" style="edgeStyle=orthogonalEdgeStyle;rounded=0;orthogonalLoop=1;jettySize=auto;html=1;entryX=0.5;entryY=0;entryDx=0;entryDy=0;" edge="1" parent="WIyWlLk6GJQsqaUBKTNV-1" source="9PQsEiwNXT5saYfVHPQ5-22" target="9PQsEiwNXT5saYfVHPQ5-49">
          <mxGeometry relative="1" as="geometry" />
        </mxCell>
        <mxCell id="9PQsEiwNXT5saYfVHPQ5-53" value="&lt;div style=&quot;font-size: 24px;&quot;&gt;FAIL&lt;/div&gt;" style="edgeLabel;html=1;align=center;verticalAlign=middle;resizable=0;points=[];fontSize=24;" vertex="1" connectable="0" parent="9PQsEiwNXT5saYfVHPQ5-52">
          <mxGeometry x="-0.672" relative="1" as="geometry">
            <mxPoint as="offset" />
          </mxGeometry>
        </mxCell>
        <mxCell id="9PQsEiwNXT5saYfVHPQ5-22" value="Validation" style="shape=process;whiteSpace=wrap;html=1;backgroundOutline=1;fontSize=24;fillColor=#e1d5e7;strokeColor=#9673a6;" vertex="1" parent="WIyWlLk6GJQsqaUBKTNV-1">
          <mxGeometry x="1385" y="1040" width="210" height="110" as="geometry" />
        </mxCell>
        <mxCell id="9PQsEiwNXT5saYfVHPQ5-46" style="edgeStyle=orthogonalEdgeStyle;rounded=0;orthogonalLoop=1;jettySize=auto;html=1;entryX=0.5;entryY=0;entryDx=0;entryDy=0;" edge="1" parent="WIyWlLk6GJQsqaUBKTNV-1" source="9PQsEiwNXT5saYfVHPQ5-25" target="9PQsEiwNXT5saYfVHPQ5-26">
          <mxGeometry relative="1" as="geometry" />
        </mxCell>
        <mxCell id="9PQsEiwNXT5saYfVHPQ5-25" value="&lt;div&gt;&lt;font style=&quot;font-size: 24px;&quot;&gt;Invaild API header&lt;/font&gt;&lt;/div&gt;" style="rounded=1;whiteSpace=wrap;html=1;fillColor=#f8cecc;strokeColor=#b85450;" vertex="1" parent="WIyWlLk6GJQsqaUBKTNV-1">
          <mxGeometry x="2710" y="1330" width="180" height="120" as="geometry" />
        </mxCell>
        <mxCell id="9PQsEiwNXT5saYfVHPQ5-26" value="Return 403" style="rounded=1;whiteSpace=wrap;html=1;fontSize=24;fillColor=#f8cecc;strokeColor=#b85450;" vertex="1" parent="WIyWlLk6GJQsqaUBKTNV-1">
          <mxGeometry x="2725" y="1570" width="150" height="125" as="geometry" />
        </mxCell>
        <mxCell id="9PQsEiwNXT5saYfVHPQ5-32" style="edgeStyle=orthogonalEdgeStyle;rounded=0;orthogonalLoop=1;jettySize=auto;html=1;" edge="1" parent="WIyWlLk6GJQsqaUBKTNV-1" source="9PQsEiwNXT5saYfVHPQ5-30" target="9PQsEiwNXT5saYfVHPQ5-31">
          <mxGeometry relative="1" as="geometry" />
        </mxCell>
        <mxCell id="9PQsEiwNXT5saYfVHPQ5-33" value="Not in 128 LRU" style="edgeLabel;html=1;align=center;verticalAlign=middle;resizable=0;points=[];fontSize=24;fontStyle=0" vertex="1" connectable="0" parent="9PQsEiwNXT5saYfVHPQ5-32">
          <mxGeometry x="0.441" y="1" relative="1" as="geometry">
            <mxPoint x="9" y="70" as="offset" />
          </mxGeometry>
        </mxCell>
        <mxCell id="9PQsEiwNXT5saYfVHPQ5-62" style="edgeStyle=orthogonalEdgeStyle;rounded=0;orthogonalLoop=1;jettySize=auto;html=1;entryX=0;entryY=0.75;entryDx=0;entryDy=0;" edge="1" parent="WIyWlLk6GJQsqaUBKTNV-1" source="9PQsEiwNXT5saYfVHPQ5-30" target="9PQsEiwNXT5saYfVHPQ5-60">
          <mxGeometry relative="1" as="geometry">
            <Array as="points">
              <mxPoint x="910" y="1360" />
              <mxPoint x="910" y="2112" />
            </Array>
          </mxGeometry>
        </mxCell>
        <mxCell id="9PQsEiwNXT5saYfVHPQ5-65" value="In 128 LRU" style="edgeLabel;html=1;align=center;verticalAlign=middle;resizable=0;points=[];fontSize=24;" vertex="1" connectable="0" parent="9PQsEiwNXT5saYfVHPQ5-62">
          <mxGeometry x="-0.4358" y="-2" relative="1" as="geometry">
            <mxPoint y="28" as="offset" />
          </mxGeometry>
        </mxCell>
        <mxCell id="9PQsEiwNXT5saYfVHPQ5-30" value="Cache Chec&lt;span style=&quot;background-color: initial;&quot;&gt;king&lt;/span&gt;" style="shape=process;whiteSpace=wrap;html=1;backgroundOutline=1;fontSize=24;fillColor=#e1d5e7;strokeColor=#9673a6;" vertex="1" parent="WIyWlLk6GJQsqaUBKTNV-1">
          <mxGeometry x="1090" y="1290" width="220" height="140" as="geometry" />
        </mxCell>
        <mxCell id="9PQsEiwNXT5saYfVHPQ5-61" style="edgeStyle=orthogonalEdgeStyle;rounded=0;orthogonalLoop=1;jettySize=auto;html=1;entryX=0.5;entryY=0;entryDx=0;entryDy=0;" edge="1" parent="WIyWlLk6GJQsqaUBKTNV-1" source="9PQsEiwNXT5saYfVHPQ5-31" target="9PQsEiwNXT5saYfVHPQ5-60">
          <mxGeometry relative="1" as="geometry" />
        </mxCell>
        <mxCell id="9PQsEiwNXT5saYfVHPQ5-31" value="Store in cache" style="rounded=1;whiteSpace=wrap;html=1;fillColor=#d5e8d4;strokeColor=#82b366;fontSize=24;" vertex="1" parent="WIyWlLk6GJQsqaUBKTNV-1">
          <mxGeometry x="1412.5" y="1680" width="155" height="90" as="geometry" />
        </mxCell>
        <mxCell id="9PQsEiwNXT5saYfVHPQ5-57" style="edgeStyle=orthogonalEdgeStyle;rounded=0;orthogonalLoop=1;jettySize=auto;html=1;entryX=0.5;entryY=0;entryDx=0;entryDy=0;" edge="1" parent="WIyWlLk6GJQsqaUBKTNV-1" source="9PQsEiwNXT5saYfVHPQ5-47" target="9PQsEiwNXT5saYfVHPQ5-54">
          <mxGeometry relative="1" as="geometry" />
        </mxCell>
        <mxCell id="9PQsEiwNXT5saYfVHPQ5-47" value="Malformed Request" style="rounded=1;whiteSpace=wrap;html=1;fontSize=24;fillColor=#f8cecc;strokeColor=#b85450;" vertex="1" parent="WIyWlLk6GJQsqaUBKTNV-1">
          <mxGeometry x="1850" y="1315" width="200" height="120" as="geometry" />
        </mxCell>
        <mxCell id="9PQsEiwNXT5saYfVHPQ5-58" style="edgeStyle=orthogonalEdgeStyle;rounded=0;orthogonalLoop=1;jettySize=auto;html=1;" edge="1" parent="WIyWlLk6GJQsqaUBKTNV-1" source="9PQsEiwNXT5saYfVHPQ5-48" target="9PQsEiwNXT5saYfVHPQ5-55">
          <mxGeometry relative="1" as="geometry" />
        </mxCell>
        <mxCell id="9PQsEiwNXT5saYfVHPQ5-48" value="Invalid or Missing Parameters" style="rounded=1;whiteSpace=wrap;html=1;fontSize=24;fillColor=#f8cecc;strokeColor=#b85450;" vertex="1" parent="WIyWlLk6GJQsqaUBKTNV-1">
          <mxGeometry x="2160" y="1315" width="160" height="120" as="geometry" />
        </mxCell>
        <mxCell id="9PQsEiwNXT5saYfVHPQ5-49" value="Something Wrong" style="rounded=1;whiteSpace=wrap;html=1;fontSize=24;fillColor=#f8cecc;strokeColor=#b85450;" vertex="1" parent="WIyWlLk6GJQsqaUBKTNV-1">
          <mxGeometry x="2390" y="1315" width="170" height="120" as="geometry" />
        </mxCell>
        <mxCell id="9PQsEiwNXT5saYfVHPQ5-54" value="Return 400" style="rounded=1;whiteSpace=wrap;html=1;fontSize=24;fillColor=#f8cecc;strokeColor=#b85450;" vertex="1" parent="WIyWlLk6GJQsqaUBKTNV-1">
          <mxGeometry x="1850" y="1575" width="200" height="120" as="geometry" />
        </mxCell>
        <mxCell id="9PQsEiwNXT5saYfVHPQ5-55" value="Return 422" style="rounded=1;whiteSpace=wrap;html=1;fontSize=24;fillColor=#f8cecc;strokeColor=#b85450;" vertex="1" parent="WIyWlLk6GJQsqaUBKTNV-1">
          <mxGeometry x="2160" y="1575" width="160" height="120" as="geometry" />
        </mxCell>
        <mxCell id="9PQsEiwNXT5saYfVHPQ5-56" value="Return 500" style="rounded=1;whiteSpace=wrap;html=1;fontSize=24;fillColor=#f8cecc;strokeColor=#b85450;" vertex="1" parent="WIyWlLk6GJQsqaUBKTNV-1">
          <mxGeometry x="2400" y="1575" width="170" height="120" as="geometry" />
        </mxCell>
        <mxCell id="9PQsEiwNXT5saYfVHPQ5-59" style="edgeStyle=orthogonalEdgeStyle;rounded=0;orthogonalLoop=1;jettySize=auto;html=1;entryX=0.435;entryY=-0.033;entryDx=0;entryDy=0;entryPerimeter=0;" edge="1" parent="WIyWlLk6GJQsqaUBKTNV-1" source="9PQsEiwNXT5saYfVHPQ5-49" target="9PQsEiwNXT5saYfVHPQ5-56">
          <mxGeometry relative="1" as="geometry" />
        </mxCell>
        <mxCell id="9PQsEiwNXT5saYfVHPQ5-64" style="edgeStyle=orthogonalEdgeStyle;rounded=0;orthogonalLoop=1;jettySize=auto;html=1;" edge="1" parent="WIyWlLk6GJQsqaUBKTNV-1" source="9PQsEiwNXT5saYfVHPQ5-60" target="9PQsEiwNXT5saYfVHPQ5-1">
          <mxGeometry relative="1" as="geometry" />
        </mxCell>
        <mxCell id="9PQsEiwNXT5saYfVHPQ5-60" value="Return 200" style="rounded=1;whiteSpace=wrap;html=1;fontSize=24;fillColor=#d5e8d4;strokeColor=#82b366;" vertex="1" parent="WIyWlLk6GJQsqaUBKTNV-1">
          <mxGeometry x="1402.5" y="2030" width="175" height="110" as="geometry" />
        </mxCell>
      </root>
    </mxGraphModel>
  </diagram>
</mxfile>
